<?xml version="1.0" encoding="UTF-8"?>
<svg id="_레이어_2" data-name="레이어 2" xmlns="http://www.w3.org/2000/svg" viewBox="0 0 129.09 129.09">
  <g id="_레이어_1-2" data-name="레이어 1">
    <g>
      <path d="M74.71,49.96c-1.54,0-2.94,1.05-3.99,2.76-.97-8.9-3.39-16.26-6.17-22.1-2.77,5.84-5.19,13.2-6.17,22.1-1.06-1.71-2.45-2.76-3.99-2.76-3.27,0-5.92,4.74-5.92,10.57s2.65,10.57,5.92,10.57c1.48,0,2.84-.97,3.88-2.58.88,8.84,3.32,15.92,6.28,21.48,2.96-5.56,5.4-12.64,6.28-21.48,1.04,1.6,2.4,2.58,3.88,2.58,3.27,0,5.92-4.73,5.92-10.57s-2.65-10.57-5.92-10.57Z"/>
      <path d="M92.36,54.59c-1.91,0-3.45,2.66-3.45,5.94s1.55,5.95,3.45,5.95,3.44-2.67,3.44-5.95-1.54-5.94-3.44-5.94Z"/>
      <path d="M36.74,54.59c-1.91,0-3.44,2.66-3.44,5.94s1.54,5.95,3.44,5.95,3.45-2.67,3.45-5.95-1.55-5.94-3.45-5.94Z"/>
      <path d="M64.55,0C28.9,0,0,28.9,0,64.55s28.9,64.55,64.55,64.55,64.55-28.9,64.55-64.55S100.2,0,64.55,0ZM96.23,99.09s7.6-6.14,11.26-15.63c2.62-6.76,2.15-13.29-3.35-12.9-8.47.6-13.18,21.45-13.18,21.45,0,0,.78-11.62-3.66-17.29,0,0-6.91,13.39-18.04,22.53,5.68,7.26,11.37,10.2,11.37,10.2,0,0-5.98,0-16.08-6.74-10.1,6.74-16.08,6.74-16.08,6.74,0,0,5.69-2.94,11.37-10.2-11.13-9.14-18.04-22.53-18.04-22.53-4.43,5.68-3.66,17.29-3.66,17.29,0,0-4.7-20.85-13.18-21.45-5.5-.39-5.97,6.14-3.35,12.9,3.66,9.49,11.26,15.63,11.26,15.63C9.48,91.39,5.29,59.62,5.29,59.62c11.42-.07,19.96-10.13,29.27-23.66,6.55-9.53,16.33-11.44,16.93-11.55-7.97,2.33-15.93,17.18-10.38,18.85,4.16,1.25,8.2-5.59,13.48-12.23,2.19-2.76,4.31-5.09,6.31-7.05-4.25-6.71-8.25-10.14-8.51-10.36.34.07,5.2,1.24,12.15,7.05,6.95-5.81,11.81-6.98,12.15-7.05-.26.22-4.26,3.66-8.51,10.36,2,1.96,4.11,4.29,6.31,7.05,5.28,6.64,9.32,13.48,13.48,12.23,5.55-1.67-2.41-16.51-10.38-18.85.61.11,10.38,2.02,16.93,11.55,9.31,13.52,17.85,23.59,29.27,23.66,0,0-4.19,31.77-27.57,39.47Z"/>
    </g>
  </g>
</svg>